<?xml version="1.0" encoding="UTF-8"?>
<svg version="1.1" xmlns="http://www.w3.org/2000/svg" width="3307" height="2126">
<path d="M0 0 C9.78240952 8.19607284 16.74463971 17.43439399 22.64453125 28.68359375 C22.96558838 29.27342041 23.28664551 29.86324707 23.61743164 30.47094727 C30.55821549 44.25389881 31.03849729 58.68771606 30.96255493 73.74926758 C30.9670064 75.80267487 30.97321417 77.85607896 30.98100984 79.90947628 C30.99729912 85.51242469 30.98901208 91.11510101 30.97651863 96.71804905 C30.96742008 102.77707871 30.98150531 108.83606075 30.99278259 114.89508057 C31.00925249 125.38679012 31.01154103 135.87843406 31.00401688 146.37014771 C30.99623505 157.38731964 30.99766494 168.40443285 31.01084518 179.42160034 C31.01207689 180.45274469 31.01207689 180.45274469 31.01333348 181.50472023 C31.01756588 184.99705459 31.02198156 188.48938869 31.02648143 191.98172271 C31.0581347 216.69810109 31.07286592 241.41446204 31.07617188 266.13085938 C31.07637755 267.62365274 31.0765836 269.1164461 31.07679002 270.60923946 C31.07689157 271.34883385 31.07699311 272.08842825 31.07709773 272.8504346 C31.07761247 276.59128908 31.07813657 280.33214357 31.07867432 284.07299805 C31.07883142 285.18540295 31.07883142 285.18540295 31.0789917 286.32028068 C31.08150678 303.51365273 31.0891512 320.70702113 31.09863281 337.90039062 C31.09903464 338.63625614 31.09943646 339.37212165 31.09985046 340.13028611 C31.10908921 356.96814194 31.12071371 373.80599396 31.13690758 390.6438446 C31.13758803 391.35390569 31.13826849 392.06396677 31.13896957 392.79554486 C31.14511507 399.187504 31.15135305 405.57946304 31.15808646 411.9714216 C31.17480216 427.84696195 31.18581777 443.72246999 31.18216935 459.59801979 C31.17964416 470.67323924 31.18375024 481.74844122 31.19425108 492.82365644 C31.19963577 498.8063344 31.20183983 504.78896702 31.1950779 510.77164459 C28.53951292 598.99448157 28.53951292 598.99448157 66.28515625 675.1171875 C86.21041706 694.17210699 115.17831903 702.18512357 142.21166992 702.21972656 C143.15446304 702.22469147 144.09725616 702.22965637 145.06861877 702.23477173 C148.17075349 702.24930614 151.2728369 702.25618416 154.375 702.26171875 C155.97956275 702.26595982 155.97956275 702.26595982 157.61654091 702.27028656 C163.28822702 702.28525116 168.95988791 702.29449528 174.6315918 702.29882812 C180.43170776 702.30427927 186.231585 702.32824375 192.0316267 702.35680008 C196.54039635 702.37562519 201.04911106 702.3806427 205.55791664 702.382164 C207.69250085 702.38515133 209.82708504 702.39304327 211.96162987 702.40634918 C238.12233148 702.55765857 266.28268478 700.89629798 286.64453125 682.49609375 C291.74652704 677.09090559 295.10225802 670.62353792 298.45703125 664.05859375 C299.16859375 662.67414063 299.16859375 662.67414063 299.89453125 661.26171875 C302.82688146 654.92051142 304.53826412 648.33153892 306.14453125 641.55859375 C306.44846802 640.3065918 306.44846802 640.3065918 306.75854492 639.02929688 C310.43874463 622.50908457 310.75800769 605.54258191 310.77587891 588.69433594 C310.78520647 586.64214699 310.79537919 584.58996174 310.80632019 582.53778076 C310.83331592 577.03501616 310.84867788 571.53227669 310.86174822 566.02946377 C310.87751388 560.25327653 310.90426028 554.47713967 310.92977905 548.70098877 C310.97633132 537.79355606 311.01318845 526.88611362 311.04645193 515.97863317 C311.09203702 501.21777654 311.15282287 486.45698271 311.21269989 471.69617844 C311.3064652 448.48368189 311.38011481 425.27116641 311.45703125 402.05859375 C367.22703125 402.05859375 422.99703125 402.05859375 480.45703125 402.05859375 C480.78703125 417.56859375 481.11703125 433.07859375 481.45703125 449.05859375 C481.71061896 456.93825545 481.96869987 464.80961324 482.33203125 472.68359375 C482.37338196 473.60600861 482.41473267 474.52842346 482.45733643 475.47879028 C486.17088213 582.43755978 486.17088213 582.43755978 537.6484375 672.140625 C558.6646942 690.16979953 584.61648167 694.41983604 611.45703125 693.05859375 C628.02519929 691.61530906 643.14847558 681.75459304 653.67822266 669.29760742 C675.70043514 642.0168736 681.73591289 608.00611033 681.77587891 573.87084961 C681.78520415 572.01614457 681.79537655 570.16144363 681.80632019 568.30674744 C681.83334207 563.32858268 681.84868589 558.35044575 681.86174822 553.37222743 C681.87750211 548.14855598 681.90425244 542.92494039 681.92977905 537.7013092 C681.97635175 527.83500809 682.01319916 517.96869621 682.04645193 508.10234219 C682.09201807 494.75199519 682.15281156 481.40171779 682.21269989 468.05142879 C682.3064963 447.0538522 682.38012415 426.05625473 682.45703125 405.05859375 C734.26703125 405.05859375 786.07703125 405.05859375 839.45703125 405.05859375 C839.78703125 417.59859375 840.11703125 430.13859375 840.45703125 443.05859375 C841.03251097 456.85571603 841.03251097 456.85571603 841.8046875 470.640625 C841.85391861 471.39527542 841.90314972 472.14992584 841.95387268 472.92744446 C846.24064065 536.62106841 854.89757269 607.91387286 896.45703125 659.05859375 C897.01648437 659.78433594 897.5759375 660.51007812 898.15234375 661.2578125 C912.56758421 679.11387669 936.01927662 690.22212288 958.45703125 693.05859375 C963.33555158 693.35130497 968.19563208 693.39276155 973.08203125 693.37109375 C973.74277649 693.3689386 974.40352173 693.36678345 975.08428955 693.36456299 C995.14450691 693.25968802 1015.5814082 690.3964778 1031.45703125 677.05859375 C1032.40449219 676.27742188 1032.40449219 676.27742188 1033.37109375 675.48046875 C1044.96663852 664.95763957 1049.67583476 649.18882189 1050.58154297 633.96582031 C1052.94105219 569.68751314 1016.19065434 502.68302194 985.23828125 448.4140625 C984.71919189 447.49407471 984.20010254 446.57408691 983.6652832 445.6262207 C982.6776302 443.87749299 981.67933478 442.1347179 980.66870117 440.39916992 C980.23146729 439.62420166 979.7942334 438.8492334 979.34375 438.05078125 C978.95405029 437.3738623 978.56435059 436.69694336 978.1628418 435.99951172 C977.25979702 433.51621667 977.357823 432.45755793 978.45703125 430.05859375 C980.26586914 428.62084961 980.26586914 428.62084961 982.6796875 427.2734375 C983.59395508 426.75289795 984.50822266 426.2323584 985.45019531 425.69604492 C986.46307617 425.13506104 987.47595703 424.57407715 988.51953125 423.99609375 C990.72486733 422.74248316 992.92924517 421.4871858 995.1328125 420.23046875 C995.71868134 419.89838913 996.30455017 419.56630951 996.90817261 419.22416687 C1004.06597256 415.16328728 1011.13515514 410.95420939 1018.20703125 406.74609375 C1019.57949895 405.93089219 1020.95197621 405.11570671 1022.32446289 404.30053711 C1032.20915699 398.42393268 1042.04410477 392.46869051 1051.86254883 386.48217773 C1061.50741329 380.60761201 1071.21709345 374.84528237 1080.93951416 369.10018921 C1090.52441673 363.4345156 1100.04149319 357.68097429 1109.44311523 351.71386719 C1110.21856689 351.22563477 1110.99401855 350.73740234 1111.79296875 350.234375 C1112.79142822 349.5988269 1112.79142822 349.5988269 1113.81005859 348.95043945 C1115.45703125 348.05859375 1115.45703125 348.05859375 1117.45703125 348.05859375 C1119.02246094 350.33984375 1119.02246094 350.33984375 1120.87890625 353.55859375 C1121.21513 354.13652176 1121.55135376 354.71444977 1121.89776611 355.30989075 C1123.00802335 357.22207275 1124.10759887 359.14017052 1125.20703125 361.05859375 C1125.97981126 362.39580662 1126.75325554 363.7326358 1127.52734375 365.0690918 C1128.70772969 367.10792768 1129.88722489 369.14724636 1131.06359863 371.18840027 C1133.38135607 375.20970942 1135.72417567 379.21432211 1138.09765625 383.203125 C1147.79035022 399.52192945 1156.71076484 416.2192001 1165.45703125 433.05859375 C1166.04371582 434.18523437 1166.63040039 435.311875 1167.23486328 436.47265625 C1193.28213186 486.74763076 1215.2467141 540.78713256 1223.45703125 597.05859375 C1223.575625 597.86087402 1223.69421875 598.6631543 1223.81640625 599.48974609 C1233.30701623 666.89849825 1218.66068824 747.20885167 1177.89453125 802.43359375 C1176.42813281 804.3185963 1174.94925785 806.19397078 1173.45703125 808.05859375 C1172.73902344 808.96867187 1172.02101563 809.87875 1171.28125 810.81640625 C1135.80238852 855.05470245 1086.73103429 878.15403762 1030.78405762 884.4287262 C1020.88137577 885.42317656 1010.96276603 885.40938855 1001.01953125 885.37109375 C999.50508926 885.36786102 999.50508926 885.36786102 997.96005249 885.36456299 C935.0214225 885.14950293 874.30748451 866.57683045 828.45703125 822.05859375 C827.52310547 821.16333984 827.52310547 821.16333984 826.5703125 820.25 C817.36634996 811.40209017 809.05430317 802.31312745 801.45703125 792.05859375 C800.56754931 790.87804415 799.67692306 789.69835585 798.78515625 788.51953125 C796.66266586 785.70889441 794.55530427 782.88737663 792.45703125 780.05859375 C789.49824877 783.56649525 787.25063688 787.08316969 785.08203125 791.12109375 C770.40573246 817.49547655 749.89058432 841.31001674 725.45703125 859.05859375 C724.90708496 859.46883789 724.35713867 859.87908203 723.79052734 860.30175781 C690.7481254 884.77115309 649.16653235 894.56119948 608.64453125 894.37109375 C607.81219971 894.3689386 606.97986816 894.36678345 606.12231445 894.36456299 C593.68024956 894.31296463 581.61975658 893.90192941 569.45703125 891.05859375 C568.61462891 890.87055176 567.77222656 890.68250977 566.90429688 890.48876953 C520.15767024 879.78947789 475.13598005 850.73187219 445.45703125 813.05859375 C445.04807617 812.54780273 444.63912109 812.03701172 444.21777344 811.51074219 C438.63602698 804.53678183 433.66411159 797.4498082 429.1484375 789.73828125 C427.72677963 787.48595492 426.43496039 785.81272051 424.45703125 784.05859375 C424.21984375 784.72890625 423.98265625 785.39921875 423.73828125 786.08984375 C416.60306116 802.6226708 403.76575535 817.21622091 391.45703125 830.05859375 C390.90418457 830.64398926 390.35133789 831.22938477 389.78173828 831.83251953 C360.36886383 862.86265284 322.51551518 881.28022821 280.89453125 889.80859375 C279.93949707 890.00718994 278.98446289 890.20578613 278.00048828 890.41040039 C262.10112738 893.51190479 246.18385086 894.35882716 230.02416992 894.33325195 C228.16545917 894.3376143 226.30675021 894.34280242 224.44804382 894.34873962 C219.46022681 894.36197696 214.47248626 894.36272559 209.48465514 894.36017632 C205.29302069 894.35909619 201.10140106 894.36401629 196.90976983 894.36878175 C187.00681087 894.37982406 177.10388985 894.38034418 167.20092773 894.37426758 C157.04611333 894.36823147 146.8914376 894.38054185 136.73664683 894.40183765 C127.96061208 894.41955299 119.18462109 894.42543949 110.40856916 894.4221999 C105.19233085 894.42040274 99.97619152 894.42286421 94.75996971 894.43691444 C53.30007222 894.53919244 53.30007222 894.53919244 35.45703125 891.05859375 C34.3082399 890.84415115 33.15944855 890.62970856 31.97584534 890.4087677 C29.48735421 889.92374488 27.03999204 889.36582927 24.58203125 888.74609375 C23.72383789 888.5344458 22.86564453 888.32279785 21.98144531 888.10473633 C13.88298778 886.03494647 6.13457044 883.35276282 -1.54296875 880.05859375 C-2.23874023 879.76082031 -2.93451172 879.46304688 -3.65136719 879.15625 C-24.16528183 870.23635207 -41.40879407 857.42336415 -57.54296875 842.05859375 C-58.249375 841.40503906 -58.95578125 840.75148438 -59.68359375 840.078125 C-66.0413261 834.01760371 -71.25782573 827.04442029 -76.54296875 820.05859375 C-77.16558594 819.25107666 -77.16558594 819.25107666 -77.80078125 818.42724609 C-127.52366987 753.72734224 -138.76057668 666.17540432 -138.66995239 587.02690125 C-138.67110778 584.79263735 -138.6726981 582.55837364 -138.67467964 580.32411033 C-138.67881539 574.2497814 -138.67680859 568.17546838 -138.67369342 562.10113943 C-138.67165056 556.2025956 -138.67433628 550.30405503 -138.67684078 544.40551166 C-138.68208086 531.61372062 -138.68166053 518.82193461 -138.67876187 506.03014311 C-138.67623847 494.83841673 -138.67559327 483.64669219 -138.67678452 472.45496559 C-138.67689909 471.33799379 -138.67689909 471.33799379 -138.67701599 470.1984569 C-138.67732736 467.17514538 -138.67764577 464.15183385 -138.67797575 461.12852233 C-138.68102878 432.81880099 -138.6782705 404.50908283 -138.67287885 376.19936198 C-138.66813146 351.08139261 -138.66856062 325.96342831 -138.67333984 300.84545898 C-138.67870056 272.57735406 -138.68081463 244.30925194 -138.67772758 216.04114658 C-138.67740689 213.02514541 -138.67709405 210.00914425 -138.67678452 206.99314308 C-138.67670544 206.25061102 -138.67662636 205.50807896 -138.67654489 204.74304593 C-138.67541017 193.55848561 -138.67673249 182.37392733 -138.67926407 171.18936729 C-138.68212913 158.46862256 -138.68139601 145.74788359 -138.67598332 133.02713957 C-138.67336172 126.54199884 -138.67231513 120.05686839 -138.67563248 113.57172775 C-138.67862707 107.62753361 -138.67695024 101.6833592 -138.67165492 95.73916683 C-138.67054422 93.59687147 -138.67109177 91.45457441 -138.67353071 89.31228014 C-138.70726965 57.19646846 -136.43102831 29.89873992 -113.35546875 5.43359375 C-82.03708143 -24.49524055 -34.14618993 -26.26236197 0 0 Z " fill="#CB2F33" transform="translate(1978.54296875,830.94140625)"/>
<path d="M0 0 C9.78240952 8.19607284 16.74463971 17.43439399 22.64453125 28.68359375 C22.96558838 29.27342041 23.28664551 29.86324707 23.61743164 30.47094727 C30.50160979 44.14149168 31.03933479 58.46335534 30.96255493 73.40518188 C30.96700671 75.4213147 30.9732147 77.43744425 30.98100984 79.45356691 C30.99729568 84.95372077 30.98901361 90.45359738 30.97651863 95.95375085 C30.96741824 101.90246512 30.98150649 107.85113095 30.99278259 113.79983521 C31.00925249 124.10164249 31.01143167 134.40337212 31.00401688 144.70518875 C30.99623255 155.52698499 30.9976692 166.34872143 31.01084518 177.17051315 C31.01207689 178.18371522 31.01207689 178.18371522 31.01333348 179.21738601 C31.01756603 182.64913533 31.0219817 186.08088439 31.02648143 189.51263337 C31.05813683 213.80285532 31.07286587 238.09305954 31.07617188 262.38330078 C31.07637755 263.8503378 31.0765836 265.31737482 31.07679002 266.78441183 C31.07689157 267.51123228 31.07699311 268.23805272 31.07709773 268.98689803 C31.07761244 272.66285553 31.07813654 276.33881302 31.07867432 280.01477051 C31.07883142 281.10779145 31.07883142 281.10779145 31.0789917 282.22289363 C31.08150497 299.10383875 31.08914757 315.98478014 31.09863281 332.86572266 C31.09903464 333.58793734 31.09943646 334.31015202 31.09985046 335.054252 C31.10909474 351.58972621 31.120729 368.12519656 31.13690758 384.66066551 C31.13758803 385.35863708 31.13826849 386.05660864 31.13896957 386.77573085 C31.14511617 393.06015239 31.15135457 399.34457381 31.15808646 405.62899475 C31.17548907 421.88280002 31.18550272 438.13656593 31.18170772 454.39038078 C31.1796491 464.6113579 31.18440986 474.83231732 31.19425108 485.05328985 C31.19962066 490.92734707 31.20186635 496.80135825 31.1950779 502.67541504 C27.80206986 594.06526264 27.80206986 594.06526264 64.94287109 673.57519531 C89.57356749 697.70549381 122.26718688 702.38391924 155.3203125 702.359375 C157.52402323 702.36327209 159.72773321 702.36760881 161.93144226 702.37236023 C166.53138676 702.37978322 171.13125445 702.37955987 175.73120117 702.37426758 C181.58088195 702.36847943 187.43024543 702.38540767 193.27987385 702.40861225 C197.82622569 702.42345451 202.37250296 702.4242071 206.91887474 702.42110252 C209.07350479 702.42161051 211.22813961 702.42674825 213.38274574 702.43691444 C242.67832512 702.55820314 269.59327541 697.28797815 291.4140625 676.1640625 C302.72586734 664.03515212 309.33309926 648.58938383 313.20703125 632.68359375 C313.40578857 631.87083984 313.6045459 631.05808594 313.80932617 630.22070312 C317.21086299 615.30234705 317.75969659 600.55568534 317.77587891 585.33203125 C317.78519896 583.30013642 317.79537064 581.26824535 317.80632019 579.23635864 C317.83340034 573.77054621 317.84870368 568.30475923 317.86174822 562.83889771 C317.87747594 557.10806389 317.90423495 551.37728132 317.92977905 545.64648438 C317.97639727 534.81683385 318.01322299 523.9871735 318.04645193 513.15747452 C318.09197593 498.5074493 318.15278638 483.85748783 318.21269989 469.20751572 C318.30656555 446.15790716 318.38014501 423.10827968 318.45703125 400.05859375 C374.22703125 400.05859375 429.99703125 400.05859375 487.45703125 400.05859375 C487.83203125 456.74609375 487.83203125 456.74609375 487.93505859 474.45581055 C487.97509459 479.82682955 487.97509459 479.82682955 488.01748657 485.1978302 C488.03484226 487.5373671 488.04878514 489.87693125 488.0597229 492.21650696 C488.34125435 549.92583457 493.18067933 615.23618318 532.45703125 661.05859375 C533.00617187 661.74050781 533.5553125 662.42242188 534.12109375 663.125 C553.29552617 686.34332931 584.19744319 698.29918301 613.38576126 701.78298569 C624.27084265 702.75978558 635.27517851 702.46917632 646.19688678 702.4286387 C650.03515211 702.41713244 653.8734075 702.42144628 657.71168518 702.42338562 C664.15231744 702.42426276 670.59284329 702.41331192 677.03344727 702.39477539 C684.42308594 702.37362588 691.812569 702.37009959 699.20223182 702.37633735 C706.38206004 702.38208205 713.56183484 702.37632529 720.74165535 702.3651638 C723.76462886 702.36058386 726.78756899 702.35961465 729.81054497 702.36174965 C769.6069945 703.81307474 769.6069945 703.81307474 804.328125 687.33203125 C813.04473214 677.81114864 814.9872464 666.6450267 814.76171875 654.078125 C813.52942986 633.1241218 801.39154217 614.88695833 791.24853516 597.20214844 C788.14845738 591.76243714 785.11663038 586.28501969 782.08203125 580.80859375 C781.45756104 579.68308105 780.83309082 578.55756836 780.18969727 577.39794922 C777.63887023 572.79985542 775.09001294 568.2006708 772.54101562 563.6015625 C765.535843 550.96506111 758.50569991 538.34475543 751.37939453 525.77612305 C746.46670534 517.10105121 741.62249446 508.38850538 736.79467773 499.66601562 C734.05967717 494.72741069 731.31866441 489.79435274 728.5078125 484.8984375 C728.08016602 484.15134521 727.65251953 483.40425293 727.21191406 482.63452148 C726.44469011 481.29879149 725.67230522 479.96600571 724.89355469 478.63696289 C723.30411712 475.86636576 722.45703125 474.31543531 722.45703125 471.05859375 C724.69628906 469.25048828 724.69628906 469.25048828 727.91015625 467.19140625 C728.50035049 466.80869064 729.09054474 466.42597504 729.69862366 466.03166199 C731.00163145 465.18848144 732.30780267 464.35017533 733.61660767 463.51602173 C735.7428979 462.16073248 737.86101197 460.79346409 739.97729492 459.42260742 C742.28300074 457.92930157 744.58924882 456.43689628 746.89787292 454.94810486 C755.9442665 449.11293258 764.92933708 443.18525342 773.91394043 437.2555542 C776.78600266 435.36022394 779.65901806 433.46634593 782.53222656 431.57275391 C793.36162099 424.43365567 804.16997689 417.26477042 814.95288086 410.05566406 C825.2104514 403.20610727 835.50382382 396.4108982 845.80053711 389.62036133 C847.8084172 388.29616627 849.81607003 386.97162655 851.82348633 385.64672852 C854.6459097 383.78419769 857.4692849 381.92311917 860.29296875 380.0625 C861.1438205 379.50083633 861.99467224 378.93917267 862.87130737 378.36048889 C866.68965233 375.84687863 870.50736449 373.36365009 874.45703125 371.05859375 C878.87328839 377.50466491 882.92245998 384.10758081 886.83203125 390.87109375 C887.73115234 392.42111084 887.73115234 392.42111084 888.6484375 394.00244141 C890.58859778 397.35221814 892.52316182 400.70518187 894.45703125 404.05859375 C895.1109082 405.1892627 895.76478516 406.31993164 896.43847656 407.48486328 C911.16301018 432.96630655 925.0326717 458.8684895 938.45703125 485.05859375 C938.94268555 486.0012207 939.42833984 486.94384766 939.92871094 487.91503906 C984.05791634 573.73383669 1010.36123411 661.70065233 981.50439453 768.00537109 C975.37093747 786.95081852 967.53288618 806.07016182 955.45703125 822.05859375 C954.77125 823.03570313 954.08546875 824.0128125 953.37890625 825.01953125 C926.48091559 862.07288573 886.19907517 881.84088944 841.9296875 890.0859375 C823.19091459 893.03485843 804.55011953 893.39514228 785.62267518 893.46331072 C781.73495619 893.47930852 777.84730794 893.50602454 773.9596405 893.53134155 C767.39783966 893.57263282 760.83603364 893.60714725 754.27416992 893.63671875 C747.67061847 893.66648543 741.06711843 893.70083965 734.46362305 893.74121094 C733.65967043 893.74612525 732.85571781 893.75103957 732.027403 893.7561028 C730.4076666 893.76603464 728.78793028 893.77598056 727.16819406 893.78594065 C712.85217852 893.87358653 698.53618792 893.94285853 684.21999383 893.99355936 C675.42851645 894.02474112 666.6373682 894.06732723 657.84611994 894.13884652 C651.95192816 894.18653881 646.05771661 894.21986401 640.16339684 894.2480278 C637.79532756 894.26204751 635.42728168 894.2812884 633.05930519 894.30650711 C614.73828402 894.4977741 596.76774059 893.41105523 579.08203125 888.24609375 C578.16977783 887.98747559 577.25752441 887.72885742 576.31762695 887.46240234 C568.4567475 885.17527362 560.94229006 882.38985656 553.45703125 879.05859375 C552.79960938 878.77290527 552.1421875 878.4872168 551.46484375 878.19287109 C535.2837235 871.12889619 520.21984408 862.1332093 506.45703125 851.05859375 C505.44769531 850.25292969 504.43835937 849.44726562 503.3984375 848.6171875 C484.51215018 833.24842024 469.94972502 815.84616753 457.45703125 795.05859375 C456.64975586 793.71547119 456.64975586 793.71547119 455.82617188 792.34521484 C454.36840445 789.91716904 452.91205478 787.48828457 451.45703125 785.05859375 C451.16570313 785.6319043 450.874375 786.20521484 450.57421875 786.79589844 C439.58519702 808.33334433 439.58519702 808.33334433 432.45703125 818.05859375 C431.68875 819.11046875 430.92046875 820.16234375 430.12890625 821.24609375 C424.37933256 828.97426105 418.08945418 836.0824172 411.45703125 843.05859375 C410.83828125 843.74179688 410.21953125 844.425 409.58203125 845.12890625 C380.73377056 875.90897012 334.56491546 892.54705151 293.00355864 894.15342188 C290.45762778 894.19172841 287.91334317 894.20153732 285.36712646 894.19903564 C283.91976557 894.20349233 283.91976557 894.20349233 282.44316506 894.20803905 C279.23651509 894.21665317 276.02990278 894.2182281 272.82324219 894.21972656 C270.512664 894.22436006 268.20208657 894.22938543 265.89151001 894.23477173 C259.63049439 894.24785018 253.36948947 894.25433227 247.10846233 894.25878239 C243.18750301 894.26172168 239.26654655 894.26582817 235.34558868 894.27028656 C224.45757531 894.28238888 213.56956512 894.29277202 202.68154526 894.29616165 C201.98613936 894.29638122 201.29073345 894.29660078 200.57425465 894.296827 C199.87731813 894.29704528 199.18038162 894.29726356 198.46232581 894.29748845 C197.05040471 894.29793189 195.6384836 894.29837846 194.2265625 894.29882812 C193.52622203 894.29904955 192.82588156 894.29927098 192.10431865 894.29949912 C180.78396607 894.30343797 169.46367821 894.32086683 158.14335057 894.34418765 C146.47893722 894.36802018 134.81455617 894.38036895 123.15011811 894.38152957 C116.61806386 894.3825719 110.08610095 894.38835634 103.55406952 894.40634918 C97.3980017 894.42297693 91.24209242 894.42491491 85.08600998 894.41621017 C82.84410804 894.41544749 80.60219705 894.41967912 78.36031723 894.42966843 C25.97158046 894.64914326 -20.95850996 878.11333002 -58.54296875 841.05859375 C-71.58466276 827.8881383 -82.09099282 812.95042095 -91.54296875 797.05859375 C-91.91486328 796.4464502 -92.28675781 795.83430664 -92.66992188 795.20361328 C-119.72691734 750.52616707 -131.48458361 696.77748064 -136.29296875 645.37109375 C-136.40866211 644.15188232 -136.52435547 642.9326709 -136.64355469 641.67651367 C-139.16108002 612.25628414 -138.68916185 582.6628879 -138.67369342 553.16563261 C-138.67140771 546.70425208 -138.67493444 540.24287414 -138.67767334 533.78149414 C-138.68203291 521.88987972 -138.68151129 509.9982704 -138.67876187 498.10665569 C-138.67623511 487.12288331 -138.67559482 476.1391128 -138.67678452 465.15534019 C-138.6768609 464.42358188 -138.67693729 463.69182358 -138.67701599 462.93789077 C-138.67732737 459.96672968 -138.67764578 456.99556858 -138.67797575 454.02440749 C-138.68102579 426.22888772 -138.67827492 398.4333712 -138.67287885 370.63785193 C-138.66812874 345.98211765 -138.66856351 321.32638853 -138.67333984 296.6706543 C-138.67870065 268.90571138 -138.68081485 241.14077133 -138.67772758 213.37582797 C-138.6774069 210.41384327 -138.67709406 207.45185858 -138.67678452 204.48987389 C-138.67670544 203.76066918 -138.67662636 203.03146448 -138.67654489 202.28016266 C-138.67541051 191.29984513 -138.67673179 180.31952967 -138.67926407 169.33921242 C-138.68212907 156.85466878 -138.68130016 144.37013144 -138.67598332 131.8855885 C-138.67336211 125.521922 -138.6723145 119.15826595 -138.67563248 112.79459953 C-138.67862771 106.96167004 -138.67694922 101.12876064 -138.67165492 95.29583295 C-138.67054453 93.19409351 -138.67109107 91.09235235 -138.67353071 88.99061403 C-138.70780768 56.98901416 -136.33933927 29.80152946 -113.35546875 5.43359375 C-82.03708143 -24.49524055 -34.14618993 -26.26236197 0 0 Z " fill="#CB2F33" transform="translate(748.54296875,830.94140625)"/>
<path d="M0 0 C1.28922867 -0.00310181 2.57845734 -0.00620361 3.90675354 -0.00939941 C5.30998764 -0.00759285 6.7132215 -0.00559365 8.11645508 -0.00341797 C9.58255541 -0.0045179 11.04865553 -0.00594875 12.51475525 -0.00769043 C16.41705146 -0.01058528 20.31930535 -0.0063129 24.22159576 0.00041962 C26.63778176 0.00439749 29.05396558 0.00690653 31.47015381 0.00909424 C77.04833401 0.0566977 77.04833401 0.0566977 98.44848633 1.12939453 C99.63603516 1.18853027 100.82358398 1.24766602 102.04711914 1.30859375 C120.63733269 2.30044196 139.02585423 4.49271924 157.44848633 7.12939453 C159.39779053 7.40589844 159.39779053 7.40589844 161.38647461 7.68798828 C190.73823192 11.90655333 219.69234253 17.89132014 248.44848633 25.12939453 C249.37532227 25.35949219 250.3021582 25.58958984 251.25708008 25.82666016 C294.64470611 36.62792751 337.34781601 51.14493614 378.38598633 68.87939453 C379.58755371 69.39808105 380.78912109 69.91676758 382.02709961 70.45117188 C390.31410603 74.0801224 398.38820184 78.02816001 406.44848633 82.12939453 C407.88263404 82.84833674 409.31738587 83.56607739 410.75317383 84.28173828 C412.60805666 85.2091797 414.46290888 86.13668263 416.31738281 87.06494141 C419.70573479 88.76052502 423.09615439 90.45166988 426.49145508 92.13330078 C439.13094611 98.40169118 451.55914938 104.82714502 463.52270508 112.32080078 C466.72606296 114.30098062 469.98951511 116.12715847 473.29223633 117.93408203 C498.95513541 132.16025435 523.84096309 149.40317325 547.05688477 167.29980469 C549.6318947 169.26970306 552.22839799 171.2082339 554.83129883 173.14111328 C555.72896973 173.80844482 556.62664062 174.47577637 557.55151367 175.16333008 C559.25104908 176.42567639 560.95179305 177.68639812 562.65405273 178.94506836 C567.16134178 182.30791019 571.46174529 185.80948083 575.66186523 189.54882812 C577.96856511 191.58949155 580.35742825 193.51680525 582.76098633 195.44189453 C587.62175072 199.39379024 592.26599196 203.53623732 596.87817383 207.77392578 C601.45532129 211.96848493 606.10494093 216.05802596 610.94848633 219.94189453 C612.18598633 221.02470703 612.18598633 221.02470703 613.44848633 222.12939453 C613.44848633 222.78939453 613.44848633 223.44939453 613.44848633 224.12939453 C614.43848633 224.45939453 615.42848633 224.78939453 616.44848633 225.12939453 C616.44848633 225.78939453 616.44848633 226.44939453 616.44848633 227.12939453 C617.43848633 227.45939453 618.42848633 227.78939453 619.44848633 228.12939453 C619.44848633 228.78939453 619.44848633 229.44939453 619.44848633 230.12939453 C620.43848633 230.45939453 621.42848633 230.78939453 622.44848633 231.12939453 C622.44848633 231.78939453 622.44848633 232.44939453 622.44848633 233.12939453 C623.43848633 233.45939453 624.42848633 233.78939453 625.44848633 234.12939453 C625.44848633 234.78939453 625.44848633 235.44939453 625.44848633 236.12939453 C626.43848633 236.45939453 627.42848633 236.78939453 628.44848633 237.12939453 C628.44848633 237.78939453 628.44848633 238.44939453 628.44848633 239.12939453 C629.10848633 239.12939453 629.76848633 239.12939453 630.44848633 239.12939453 C632.06958008 240.88720703 632.06958008 240.88720703 633.88598633 243.25439453 C634.48282227 244.02009766 635.0796582 244.78580078 635.69458008 245.57470703 C645.58896729 259.98657616 643.85052053 283.11443701 641.25708008 299.76611328 C637.98373926 313.3813135 626.83820391 324.57653141 615.44848633 332.12939453 C604.86091041 338.21848053 595.15940806 342.52433085 582.76098633 342.44189453 C581.87540039 342.43625488 580.98981445 342.43061523 580.07739258 342.42480469 C565.74103701 342.16018994 550.9465891 337.38048312 540.44848633 327.12939453 C540.44848633 326.46939453 540.44848633 325.80939453 540.44848633 325.12939453 C539.64797852 324.80648437 539.64797852 324.80648437 538.83129883 324.47705078 C535.57191025 322.63362609 533.02036862 320.1292608 530.32348633 317.56689453 C526.68445226 313.94305546 526.68445226 313.94305546 522.44848633 311.12939453 C522.44848633 310.46939453 522.44848633 309.80939453 522.44848633 309.12939453 C521.61317383 308.75814453 521.61317383 308.75814453 520.76098633 308.37939453 C518.02437719 306.90014635 515.77197763 305.19472014 513.44848633 303.12939453 C513.44848633 302.46939453 513.44848633 301.80939453 513.44848633 301.12939453 C512.89032227 300.88060547 512.3321582 300.63181641 511.75708008 300.37548828 C509.04804403 298.91325055 506.87884313 297.1609544 504.51098633 295.19189453 C503.53129883 294.38107422 502.55161133 293.57025391 501.54223633 292.73486328 C499.52642292 291.04592138 497.53225325 289.33754256 495.54223633 287.61767578 C486.61807676 279.9071319 477.24996862 272.85114477 467.76245117 265.84960938 C466.22294866 264.70513431 464.69190393 263.54919132 463.16967773 262.38183594 C462.46375488 261.84091309 461.75783203 261.29999023 461.03051758 260.74267578 C460.10009644 260.02204956 460.10009644 260.02204956 459.15087891 259.28686523 C457.33813416 257.94155681 457.33813416 257.94155681 454.44848633 257.12939453 C454.44848633 256.46939453 454.44848633 255.80939453 454.44848633 255.12939453 C453.7353125 254.87125977 453.02213867 254.613125 452.28735352 254.34716797 C449.26312453 253.04988089 446.75405907 251.48397329 444.02661133 249.64501953 C442.4874707 248.61248047 442.4874707 248.61248047 440.91723633 247.55908203 C439.85504883 246.83978516 438.79286133 246.12048828 437.69848633 245.37939453 C436.65176758 244.67556641 435.60504883 243.97173828 434.52661133 243.24658203 C431.49868497 241.21030156 428.47340289 239.17014236 425.44848633 237.12939453 C423.77782298 236.00259598 422.1060728 234.87740583 420.43286133 233.75439453 C419.75449219 233.29806641 419.07612305 232.84173828 418.37719727 232.37158203 C415.70300371 230.64926598 412.93294577 229.1412645 410.13598633 227.62939453 C407.52768211 226.17359683 404.98252455 224.63144344 402.43188477 223.07763672 C373.27286921 205.4616288 341.90838698 191.05531023 310.44848633 178.12939453 C309.05436523 177.5517334 309.05436523 177.5517334 307.63208008 176.96240234 C252.78439325 154.34870905 194.98431724 140.27119319 136.44873047 131.43469238 C134.66291896 131.16212345 132.87881083 130.87844758 131.0949707 130.59326172 C109.06883015 127.10060713 86.6957031 127.35780977 64.44848633 127.12939453 C63.02905137 127.11274575 61.60961765 127.09599197 60.19018555 127.07910156 C52.06654089 126.99403172 43.94696345 127.01243754 35.82342529 127.10333252 C34.12556265 127.12196446 32.42768422 127.13918019 30.72979736 127.15545654 C-64.60114991 128.07177536 -158.16139526 147.47235494 -261.96508789 194.46533203 C-264.98877005 195.86828762 -268.01913172 197.25403617 -271.05541992 198.62939453 C-282.6888608 203.94764102 -293.73460709 210.18639016 -304.81176758 216.57104492 C-308.53998181 218.69162872 -312.30642426 220.73844825 -316.08032227 222.77636719 C-331.4736649 231.20453404 -346.0101224 241.32613123 -360.55151367 251.12939453 C-361.30754883 251.63760742 -362.06358398 252.14582031 -362.8425293 252.66943359 C-374.552067 260.55322355 -385.91845691 268.67532705 -396.83276367 277.63720703 C-397.56406494 278.23662109 -398.29536621 278.83603516 -399.04882812 279.45361328 C-400.48664782 280.63579566 -401.92023766 281.82314523 -403.34912109 283.01611328 C-404.3213562 283.81855469 -404.3213562 283.81855469 -405.31323242 284.63720703 C-405.89032959 285.11818848 -406.46742676 285.59916992 -407.06201172 286.09472656 C-408.55151367 287.12939453 -408.55151367 287.12939453 -410.55151367 287.12939453 C-410.55151367 287.78939453 -410.55151367 288.44939453 -410.55151367 289.12939453 C-411.99291992 290.39892578 -411.99291992 290.39892578 -414.11401367 291.94189453 C-419.45338652 295.95281097 -424.42915498 300.33035639 -429.40917969 304.77319336 C-430.34201782 305.59533325 -430.34201782 305.59533325 -431.29370117 306.43408203 C-431.84912598 306.9289209 -432.40455078 307.42375977 -432.97680664 307.93359375 C-434.55151367 309.12939453 -434.55151367 309.12939453 -437.55151367 310.12939453 C-437.55151367 310.78939453 -437.55151367 311.44939453 -437.55151367 312.12939453 C-439.01245117 313.63720703 -439.01245117 313.63720703 -440.92651367 315.25439453 C-441.86624023 316.06263672 -441.86624023 316.06263672 -442.82495117 316.88720703 C-444.55151367 318.12939453 -444.55151367 318.12939453 -446.55151367 318.12939453 C-446.88151367 319.11939453 -447.21151367 320.10939453 -447.55151367 321.12939453 C-449.76641247 323.02829337 -451.97866458 324.81065134 -454.30151367 326.56689453 C-455.54639932 327.52380352 -456.79119257 328.48083274 -458.03588867 329.43798828 C-458.63925049 329.89633057 -459.2426123 330.35467285 -459.86425781 330.8269043 C-461.32273827 331.95278959 -462.74379982 333.12683931 -464.15698242 334.30908203 C-466.71190405 336.25132262 -469.18120648 337.5238488 -472.11401367 338.81689453 C-473.50813477 339.44144531 -473.50813477 339.44144531 -474.93041992 340.07861328 C-481.494129 342.7099661 -487.99011928 342.42457303 -494.98901367 342.50439453 C-496.19750977 342.54177734 -497.40600586 342.57916016 -498.65112305 342.61767578 C-513.97949364 342.76545868 -527.5169122 336.13558003 -538.80541992 325.90283203 C-551.74313955 312.76250829 -559.84392021 296.63439684 -559.98901367 277.94189453 C-559.5871771 253.20662141 -544.40083175 238.45281359 -527.75756836 222.22290039 C-523.42749412 218.11373853 -518.90673564 214.23754885 -514.30151367 210.44189453 C-511.63671565 208.26840829 -511.63671565 208.26840829 -509.67651367 206.25439453 C-504.67154024 201.2494211 -499.27234724 196.78548242 -493.50854492 192.68408203 C-491.40629184 191.0771937 -491.40629184 191.0771937 -489.18823242 188.74267578 C-486.4575371 186.03625331 -483.61695451 183.76013417 -480.55151367 181.44189453 C-479.38988815 180.56060444 -478.22843444 179.67908785 -477.06713867 178.79736328 C-476.4799707 178.35312012 -475.89280273 177.90887695 -475.2878418 177.45117188 C-472.60667019 175.41013376 -469.95827089 173.32706568 -467.30151367 171.25439453 C-420.14192212 134.90191371 -367.62544106 104.44549386 -313.80737305 79.18896484 C-311.70473451 78.2013619 -309.60440343 77.20902645 -307.50463867 76.21533203 C-300.39496903 72.86061585 -293.23583394 69.64935047 -285.99291992 66.59033203 C-283.74270147 65.63507471 -281.50002903 64.66179019 -279.26635742 63.66845703 C-271.57207135 60.26677266 -263.79365083 57.37037553 -255.83032227 54.66479492 C-251.84957762 53.3082889 -247.92869366 51.89338569 -244.04370117 50.28173828 C-236.48303193 47.21811046 -228.68764037 44.81468363 -220.92651367 42.31689453 C-220.10416229 42.05138794 -219.28181091 41.78588135 -218.43453979 41.5123291 C-204.87506571 37.13827337 -191.28565246 32.92544916 -177.55151367 29.12939453 C-176.40199219 28.81019043 -175.2524707 28.49098633 -174.06811523 28.16210938 C-135.70928975 17.56656062 -97.03758779 9.92115585 -57.55151367 5.12939453 C-56.69106445 5.02143555 -55.83061523 4.91347656 -54.9440918 4.80224609 C-43.91209063 3.41975481 -32.85350323 2.58046524 -21.76171875 1.82617188 C-20.65594482 1.74963379 -19.5501709 1.6730957 -18.41088867 1.59423828 C-17.42572266 1.52841553 -16.44055664 1.46259277 -15.42553711 1.39477539 C-12.55723165 1.17308465 -12.55723165 1.17308465 -9.78135681 0.62089539 C-6.4666009 0.11647294 -3.35158815 0.00237096 0 0 Z " fill="#CB2F33" transform="translate(648.551513671875,117.87060546875)"/>
<path d="M0 0 C1.21929199 0.32081543 2.43858398 0.64163086 3.69482422 0.97216797 C10.0572324 2.68740591 16.2447047 4.62617019 22.41308594 6.9440918 C25.15962633 7.96471906 27.93518111 8.81334058 30.75 9.625 C63.12742456 19.44908278 94.05234391 33.75426515 123.75 49.8125 C124.70390625 50.32554687 125.6578125 50.83859375 126.640625 51.3671875 C132.33073945 54.44517339 137.95640671 57.62940888 143.56323242 60.85595703 C147.05396603 62.86032912 150.57085527 64.79836001 154.125 66.6875 C164.55544233 72.34886103 174.56884179 78.74704362 184.06640625 85.859375 C188.10239819 88.79677816 192.30329611 91.46403068 196.51171875 94.1484375 C197.25035156 94.69757813 197.98898437 95.24671875 198.75 95.8125 C198.75 96.4725 198.75 97.1325 198.75 97.8125 C199.430625 98.039375 200.11125 98.26625 200.8125 98.5 C204.4488709 100.12476146 207.77829263 102.14053257 210.75 104.8125 C210.75 105.4725 210.75 106.1325 210.75 106.8125 C211.58144531 107.19728516 211.58144531 107.19728516 212.4296875 107.58984375 C220.18591041 111.67687703 226.85255833 117.64494568 233.24609375 123.56640625 C236.65888957 126.62780656 240.26798276 129.4069638 243.9140625 132.18359375 C244.51992187 132.72113281 245.12578125 133.25867188 245.75 133.8125 C245.75 134.4725 245.75 135.1325 245.75 135.8125 C246.5853125 136.18375 246.5853125 136.18375 247.4375 136.5625 C252.27017755 139.17475813 255.35998855 142.57498568 258.75 146.8125 C259.513125 147.410625 260.27625 148.00875 261.0625 148.625 C264.10941406 151.10504632 266.52505075 153.82917264 269.0546875 156.82421875 C270.43151736 158.43898004 271.89223678 159.9819329 273.375 161.5 C282.70810159 172.89685673 283.80320326 190.68711345 282.47265625 204.7421875 C280.85990794 216.56900842 276.4335971 225.78154227 268.75 234.8125 C268.22664063 235.555 267.70328125 236.2975 267.1640625 237.0625 C266.69742188 237.64 266.23078125 238.2175 265.75 238.8125 C265.09 238.8125 264.43 238.8125 263.75 238.8125 C263.42 239.8025 263.09 240.7925 262.75 241.8125 C262.09 241.8125 261.43 241.8125 260.75 241.8125 C260.75 242.4725 260.75 243.1325 260.75 243.8125 C258.66079784 245.54045683 256.5842247 247.1259972 254.375 248.6875 C253.74102295 249.13859131 253.1070459 249.58968262 252.45385742 250.05444336 C247.48744033 253.49514302 242.53337629 256.00590505 236.75 257.8125 C235.76 258.1425 234.77 258.4725 233.75 258.8125 C229.58786594 259.07522078 225.41952454 259.04405078 221.25 259.0625 C219.5484375 259.0934375 219.5484375 259.0934375 217.8125 259.125 C194.18227701 259.23339552 179.30238839 244.9330382 162.9921875 229.80859375 C160.71746269 227.69045917 160.71746269 227.69045917 157.75 225.8125 C157.75 225.1525 157.75 224.4925 157.75 223.8125 C157.13125 223.503125 156.5125 223.19375 155.875 222.875 C154.5 222.1875 153.125 221.5 151.75 220.8125 C151.75 220.1525 151.75 219.4925 151.75 218.8125 C151.21375 218.57917969 150.6775 218.34585938 150.125 218.10546875 C147.06146103 216.43765395 144.45336975 214.3078597 141.75 212.125 C126.28168206 199.84218749 110.52498519 188.25619714 93.75 177.8125 C92.90373047 177.28495117 92.05746094 176.75740234 91.18554688 176.21386719 C81.04188048 169.92694734 70.80901208 164.03834865 60.03466797 158.90332031 C57.37272559 157.63236941 54.71979857 156.34339021 52.06640625 155.0546875 C38.93153566 148.6799674 38.93153566 148.6799674 25.50952148 142.94702148 C22.83111186 141.8458475 20.21930541 140.6512705 17.59765625 139.421875 C12.1409619 136.93091461 6.61409633 134.86566331 0.9375 132.9375 C-0.54955444 132.42823975 -0.54955444 132.42823975 -2.06665039 131.90869141 C-5.12475481 130.86743871 -8.18656165 129.83794359 -11.25 128.8125 C-12.6426709 128.34360352 -12.6426709 128.34360352 -14.06347656 127.86523438 C-36.39270675 120.3928227 -59.11781267 115.126373 -82.25 110.8125 C-83.02456543 110.66184082 -83.79913086 110.51118164 -84.59716797 110.35595703 C-163.58183474 95.11896951 -248.59964924 105.37097383 -360.25 146.8125 C-362.33219254 147.77330945 -364.4155529 148.73159162 -366.5 149.6875 C-367.56605469 150.18121094 -368.63210938 150.67492187 -369.73046875 151.18359375 C-371.58014079 152.03965728 -373.43019736 152.8949192 -375.28369141 153.74267578 C-383.58154022 157.53884231 -391.65628819 161.43995977 -399.48046875 166.16015625 C-402.25951127 167.81817457 -405.08145397 169.35414562 -407.9375 170.875 C-412.19088186 173.16999021 -416.18565423 175.69970576 -420.17578125 178.421875 C-428.21629213 183.8125 -428.21629213 183.8125 -431.25 183.8125 C-431.25 184.4725 -431.25 185.1325 -431.25 185.8125 C-432.23742187 186.34617187 -433.22484375 186.87984375 -434.2421875 187.4296875 C-438.57450867 189.90809725 -442.44648239 192.87085565 -446.375 195.9375 C-447.48705811 196.79746582 -447.48705811 196.79746582 -448.62158203 197.67480469 C-450.12461917 198.83725691 -451.62642742 200.00129995 -453.12695312 201.16699219 C-455.0315333 202.64317323 -456.94282619 204.10972552 -458.859375 205.5703125 C-465.06815747 210.30636484 -471.14452073 215.15076205 -477.10546875 220.1953125 C-479.25 221.8125 -479.25 221.8125 -481.25 221.8125 C-481.25 222.4725 -481.25 223.1325 -481.25 223.8125 C-484.71153846 226.8125 -484.71153846 226.8125 -487.25 226.8125 C-487.58 227.8025 -487.91 228.7925 -488.25 229.8125 C-489.78125 231.35546875 -489.78125 231.35546875 -491.75 233 C-495.71031708 236.34553861 -499.54845331 239.80254337 -503.3671875 243.30859375 C-505.25 244.8125 -505.25 244.8125 -507.25 244.8125 C-507.25 245.4725 -507.25 246.1325 -507.25 246.8125 C-521.62450103 257.9759056 -536.23695727 261.47370679 -554.25 259.8125 C-569.19682306 257.77472969 -579.48994507 251.17769053 -590.25 240.8125 C-590.83910156 240.26980469 -591.42820312 239.72710938 -592.03515625 239.16796875 C-593.25 237.8125 -593.25 237.8125 -593.25 235.8125 C-594.24 235.4825 -595.23 235.1525 -596.25 234.8125 C-597.70256974 232.79178807 -598.98854903 230.82153359 -600.25 228.6875 C-600.930625 227.57117188 -601.61125 226.45484375 -602.3125 225.3046875 C-605.83307441 218.95913605 -607.71661543 214.2281081 -607.71875 206.9296875 C-607.72636353 206.19356232 -607.73397705 205.45743713 -607.74182129 204.69900513 C-607.75256804 203.14767826 -607.75549759 201.59627937 -607.75097656 200.04492188 C-607.7500108 197.71355999 -607.79154913 195.38556993 -607.8359375 193.0546875 C-607.94869157 179.05650309 -604.53672006 168.52963903 -595.25 157.8125 C-594.72664063 157.07128906 -594.20328125 156.33007812 -593.6640625 155.56640625 C-592.96410156 154.69822266 -592.96410156 154.69822266 -592.25 153.8125 C-591.59 153.8125 -590.93 153.8125 -590.25 153.8125 C-589.92 152.8225 -589.59 151.8325 -589.25 150.8125 C-588.59 150.8125 -587.93 150.8125 -587.25 150.8125 C-586.92 149.8225 -586.59 148.8325 -586.25 147.8125 C-585.59 147.8125 -584.93 147.8125 -584.25 147.8125 C-583.92 146.8225 -583.59 145.8325 -583.25 144.8125 C-581.82421875 143.375 -581.82421875 143.375 -579.9375 141.8125 C-576.27348526 138.7086314 -572.71373917 135.50859084 -569.1875 132.25 C-556.74189638 120.8125 -556.74189638 120.8125 -554.25 120.8125 C-554.25 120.1525 -554.25 119.4925 -554.25 118.8125 C-552.3515625 117.0859375 -552.3515625 117.0859375 -549.875 115.1875 C-549.06289063 114.55585938 -548.25078125 113.92421875 -547.4140625 113.2734375 C-545.25 111.8125 -545.25 111.8125 -543.25 111.8125 C-543.25 111.1525 -543.25 110.4925 -543.25 109.8125 C-541.66455078 108.41137695 -541.66455078 108.41137695 -539.4453125 106.80078125 C-538.63956787 106.21151855 -537.83382324 105.62225586 -537.00366211 105.01513672 C-535.70247437 104.07951904 -535.70247437 104.07951904 -534.375 103.125 C-533.49529541 102.48578613 -532.61559082 101.84657227 -531.70922852 101.18798828 C-529.22797826 99.38883471 -526.74094618 97.59819815 -524.25 95.8125 C-523.36151367 95.17489746 -522.47302734 94.53729492 -521.55761719 93.88037109 C-508.75173209 84.7336872 -495.48966874 76.20341416 -482.09326172 67.953125 C-480.31716777 66.85406395 -478.55006348 65.74191464 -476.78515625 64.625 C-470.86989718 60.91125828 -464.92799527 57.53921461 -458.64453125 54.4921875 C-455.29634341 52.83543172 -452.00250175 51.09945802 -448.70776367 49.33984375 C-421.87113449 35.02843371 -394.00380146 22.73299585 -365.25 12.8125 C-364.5286084 12.55839355 -363.8072168 12.30428711 -363.06396484 12.04248047 C-318.00822588 -3.82786771 -271.56672267 -13.3520333 -224.25 -19.1875 C-222.92826782 -19.35439331 -222.92826782 -19.35439331 -221.57983398 -19.5246582 C-148.07488018 -28.35503701 -71.09324036 -18.75760117 0 0 Z " fill="#CB2F33" transform="translate(854.25,368.1875)"/>
<path d="M0 0 C0.67240723 0.08975098 1.34481445 0.17950195 2.03759766 0.27197266 C30.53168937 4.15783995 58.4150984 12.49217697 85.03369141 23.21972656 C87.91987561 24.36502638 90.83710649 25.42479443 93.75 26.5 C100.74883906 29.18713269 107.33830558 32.57734333 114 36 C116.37445925 37.16776684 118.74945594 38.33444153 121.125 39.5 C127.58849535 42.7353425 133.80484732 46.28136539 140 50 C141.24303945 50.7325352 142.48655146 51.46426895 143.73046875 52.1953125 C151.04511972 56.51195959 158.12742603 60.99867142 165 66 C165.82242187 66.57878906 166.64484375 67.15757812 167.4921875 67.75390625 C175.31069699 73.31038406 182.7031863 79.35999915 190.10791016 85.44873047 C191.82995524 86.86058524 193.55907914 88.26289236 195.29296875 89.66015625 C196.24816406 90.43230469 197.20335937 91.20445312 198.1875 92 C199.00605469 92.66 199.82460938 93.32 200.66796875 94 C203.25045305 96.21479391 205.6149002 98.5744124 208 101 C208.88300781 101.85980469 209.76601563 102.71960938 210.67578125 103.60546875 C211.54589844 104.45753906 212.41601562 105.30960938 213.3125 106.1875 C214.19550781 107.04730469 215.07851563 107.90710938 215.98828125 108.79296875 C218 111 218 111 218 113 C218.99 113.33 219.98 113.66 221 114 C231.30636622 124.53164198 234.07701272 138.53809428 234.03125 152.76171875 C233.65551498 169.64295627 228.79677492 183.52912366 217 196 C216.34 196 215.68 196 215 196 C214.67 196.99 214.34 197.98 214 199 C213.34 199 212.68 199 212 199 C211.67 199.99 211.34 200.98 211 202 C208.98709593 203.61032326 207.00613453 205.06503609 204.875 206.5 C204.318125 206.89058594 203.76125 207.28117188 203.1875 207.68359375 C188.90196737 217.45963797 171.00323178 217.47536708 154.4140625 214.80859375 C143.8563502 212.30808294 136.00167759 206.02832976 128 199 C126.70872111 197.91620449 125.4171098 196.83280476 124.125 195.75 C122.20461256 194.12118971 120.44049096 192.43581279 118.6640625 190.64453125 C108.76137568 180.81444477 97.47324443 172.85926392 86 165 C85.11054687 164.37996094 84.22109375 163.75992188 83.3046875 163.12109375 C77.76122058 159.31616932 71.95880539 156.10634466 66 153 C65.14390137 152.54753906 65.14390137 152.54753906 64.27050781 152.0859375 C53.16024534 146.23655373 41.74240066 141.43085909 30 137 C28.7934375 136.53722656 27.586875 136.07445312 26.34375 135.59765625 C-29.38294352 115.5948408 -94.26141778 118.65972515 -149 140 C-149.82790039 140.32258789 -150.65580078 140.64517578 -151.50878906 140.97753906 C-160.48717192 144.52245827 -169.08400025 148.29150084 -177.32421875 153.36328125 C-179.93893249 154.9626463 -182.5967905 156.39301494 -185.3125 157.8125 C-195.58561822 163.37957996 -205.23522742 170.05029326 -214.14453125 177.6015625 C-216 179 -216 179 -218 179 C-218 179.66 -218 180.32 -218 181 C-221.46153846 184 -221.46153846 184 -224 184 C-224 184.66 -224 185.32 -224 186 C-225.57421875 187.5859375 -225.57421875 187.5859375 -227.6875 189.375 C-228.4196875 189.99890625 -229.151875 190.6228125 -229.90625 191.265625 C-231.48355286 192.57219677 -233.08088088 193.85465 -234.6875 195.125 C-237.07111571 196.97366705 -237.07111571 196.97366705 -239.1875 199.3125 C-251.16175364 210.75456459 -266.61006093 217.45783069 -283.18359375 218.12890625 C-285.8632256 217.93833737 -288.37193851 217.55201292 -291 217 C-292.44052734 216.73316406 -292.44052734 216.73316406 -293.91015625 216.4609375 C-308.18762136 213.40279659 -320.18811672 205.76581637 -330 195 C-330 194.34 -330 193.68 -330 193 C-330.66 193 -331.32 193 -332 193 C-341.56166144 179.60953473 -345.17836673 168.47356034 -345.1875 152.125 C-345.19974609 150.97902344 -345.21199219 149.83304688 -345.22460938 148.65234375 C-345.25757152 129.55627674 -336.66350293 118.55337959 -323.625 105.375 C-323.0057666 104.7464209 -322.3865332 104.1178418 -321.74853516 103.47021484 C-321.16378418 102.88965332 -320.5790332 102.3090918 -319.9765625 101.7109375 C-319.45143066 101.18806152 -318.92629883 100.66518555 -318.38525391 100.12646484 C-317 99 -317 99 -315 99 C-314.505 97.515 -314.505 97.515 -314 96 C-313.34 96 -312.68 96 -312 96 C-311.505 94.515 -311.505 94.515 -311 93 C-309.26773725 91.39187335 -307.4654991 89.85802684 -305.625 88.375 C-304.64789063 87.57835937 -303.67078125 86.78171875 -302.6640625 85.9609375 C-300 84 -300 84 -297 83 C-297 82.34 -297 81.68 -297 81 C-295.49389648 79.64648438 -295.49389648 79.64648438 -293.37109375 78.09375 C-292.59113037 77.51987549 -291.81116699 76.94600098 -291.00756836 76.35473633 C-290.1594458 75.74267334 -289.31132324 75.13061035 -288.4375 74.5 C-287.57068604 73.86924561 -286.70387207 73.23849121 -285.81079102 72.58862305 C-268.3898202 59.98393461 -250.39691797 48.32961379 -231 39 C-229.68843639 38.33923757 -228.37859697 37.67504397 -227.0703125 37.0078125 C-219.19658792 32.99453854 -211.28580261 29.19248964 -203.09570312 25.85546875 C-201.57897154 25.23633694 -200.06498277 24.61047167 -198.55273438 23.98046875 C-174.11168716 13.83106837 -148.76218292 7.73064216 -123 2 C-122.19272461 1.81421387 -121.38544922 1.62842773 -120.55371094 1.43701172 C-83.02706888 -7.15802923 -37.93640088 -5.33522528 0 0 Z " fill="#CB2F33" transform="translate(747,579)"/>
<path d="M0 0 C50.16 0 100.32 0 152 0 C152 50.49 152 100.98 152 153 C101.84 153 51.68 153 0 153 C0 102.51 0 52.02 0 0 Z " fill="#CB2F33" transform="translate(1628,966)"/>
<path d="M0 0 C49.83 0 99.66 0 151 0 C151 50.49 151 100.98 151 153 C101.17 153 51.34 153 0 153 C0 102.51 0 52.02 0 0 Z " fill="#CB2F33" transform="translate(1194,1855)"/>
<path d="M0 0 C49.83 0 99.66 0 151 0 C151 50.49 151 100.98 151 153 C101.17 153 51.34 153 0 153 C0 102.51 0 52.02 0 0 Z " fill="#CB2F33" transform="translate(991,1855)"/>
<path d="M0 0 C49.83 0 99.66 0 151 0 C151 50.49 151 100.98 151 153 C101.17 153 51.34 153 0 153 C0 102.51 0 52.02 0 0 Z " fill="#CB2F33" transform="translate(1426,966)"/>
</svg>
